HIERARCHY
ROOT Hips
{
  OFFSET 57.8838 95.319 338.509
  CHANNELS 6 Xposition Yposition Zposition Zrotation Xrotation Yrotation
  JOINT LeftUpLeg
  {
    OFFSET 8.64259 1.95398 -2.38835
    CHANNELS 3 Zrotation Xrotation Yrotation
    JOINT LeftLeg
    {
      OFFSET 43.7702 0 0
      CHANNELS 3 Zrotation Xrotation Yrotation
      JOINT LeftFoot
      {
        OFFSET 40.6238 0 0
        CHANNELS 3 Zrotation Xrotation Yrotation
        JOINT LeftToeBase
        {
          OFFSET 12.7242 0 0
          CHANNELS 3 Zrotation Xrotation Yrotation
          End Site
          {
            OFFSET 0 0 0
          }
        }
      }
    }
  }
  JOINT RightUpLeg
  {
    OFFSET -8.2249 1.95398 -2.59336
    CHANNELS 3 Zrotation Xrotation Yrotation
    JOINT RightLeg
    {
      OFFSET 43.5653 0 0
      CHANNELS 3 Zrotation Xrotation Yrotation
      JOINT RightFoot
      {
        OFFSET 40.6238 0 0
        CHANNELS 3 Zrotation Xrotation Yrotation
        JOINT RightToeBase
        {
          OFFSET 12.7242 0 0
          CHANNELS 3 Zrotation Xrotation Yrotation
          End Site
          {
            OFFSET 0 0 0
          }
        }
      }
    }
  }
  JOINT Spine
  {
    OFFSET 0.165834 0.87714 6.61349
    CHANNELS 3 Zrotation Xrotation Yrotation
    JOINT Spine1
    {
      OFFSET 7.38963 1.71661e-005 0
      CHANNELS 3 Zrotation Xrotation Yrotation
      JOINT Spine2
      {
        OFFSET 11.9445 1.14441e-005 0
        CHANNELS 3 Zrotation Xrotation Yrotation
        JOINT Spine3
        {
          OFFSET 14.7254 4.19617e-005 0
          CHANNELS 3 Zrotation Xrotation Yrotation
          JOINT Spine4
          {
            OFFSET 10.9679 0 0
            CHANNELS 3 Zrotation Xrotation Yrotation
            JOINT RightShoulder
            {
              OFFSET 2.46616 -1.6653 3.69651
              CHANNELS 3 Zrotation Xrotation Yrotation
              JOINT RightArm
              {
                OFFSET 13.0012 0 0
                CHANNELS 3 Zrotation Xrotation Yrotation
                JOINT RightForeArm
                {
                  OFFSET 28.7848 1.62311e-005 0
                  CHANNELS 3 Zrotation Xrotation Yrotation
                  JOINT RightHand
                  {
                    OFFSET 26.5688 1.62095e-005 0
                    CHANNELS 3 Zrotation Xrotation Yrotation
                    End Site
                    {
                      OFFSET 0 0 0
                    }
                  }
                }
              }
            }
            JOINT LeftShoulder
            {
              OFFSET 2.38034 -1.29275 -3.7523
              CHANNELS 3 Zrotation Xrotation Yrotation
              JOINT LeftArm
              {
                OFFSET 16.3182 6.07031e-005 0
                CHANNELS 3 Zrotation Xrotation Yrotation
                JOINT LeftForeArm
                {
                  OFFSET 27.0901 0 0
                  CHANNELS 3 Zrotation Xrotation Yrotation
                  JOINT LeftHand
                  {
                    OFFSET 24.5451 1.51738e-005 0
                    CHANNELS 3 Zrotation Xrotation Yrotation
                    End Site
                    {
                      OFFSET 0 0 0
                    }
                  }
                }
              }
            }
            JOINT Neck
            {
              OFFSET 5.0226 -0.0266342 0
              CHANNELS 3 Zrotation Xrotation Yrotation
              JOINT Head
              {
                OFFSET 6.69364 2.86102e-005 0
                CHANNELS 3 Zrotation Xrotation Yrotation
                End Site
                {
                  OFFSET 0 0 0
                }
              }
            }
          }
        }
      }
    }
  }
}
MOTION
Frames:	11
Frame Time:	0.0416667
16.9056 88.5992 -299.566 37.9239 -36.7037 37.1146 153.843 63.831 95.0012 -35.6758 -45.7223 28.5235 -96.9093 11.461 -179.766 24.963 -14.7013 76.3316 -108.665 82.7252 5.26088 -77.605 2.76539 3.32469 131.699 -36.2201 36.7962 -176.489 -16.7172 102.658 -1.02388 -0.326923 -87.1479 27.4983 -0.232161 6.05681 15.8132 0.0341526 6.06114 -6.61843 -2.03879 5.70928 13.3942 -2.03878 5.70927 65.3949 -77.4473 -123.455 143.166 -34.4001 118.413 -41.5888 -13.563 -0.0176106 1.67944 -0.153658 -26.8949 -76.771 -34.6 98.9661 12.6403 0.658794 41.5135 136.259 -67.7734 -112.507 -29.6402 18.5488 -72.5253 -4.21234 -12.9131 -43.1606 -14.4736 -11.6076 30.526 
16.7309 88.9866 -300.488 38.3289 -36.9601 37.3201 154.458 62.3682 94.1703 -27.517 -54.2899 35.0481 -107.807 15.4226 -165.764 26.4806 -11.3859 74.1938 -119.306 82.8263 15.6459 -77.3121 2.29932 3.69641 132.886 -37.2775 36.782 -174.559 -18.8912 102.412 -1.0333 -0.28165 -87.1678 27.409 -0.264931 6.02325 15.7241 -5.11268e-005 6.02905 -6.70903 -2.06002 5.66743 13.3036 -2.06001 5.66742 65.7609 -77.2734 -123.119 145.679 -32.204 120.169 -40.1094 -10.401 -0.0174055 1.98622 -0.217633 -27.076 -76.7393 -34.6184 99.0241 12.2451 0.302747 41.6538 138.655 -66.9057 -113.319 -29.4108 18.0169 -71.4365 -3.80121 -13.0512 -42.7856 -14.9558 -11.7594 30.539 
16.197 90.3603 -303.216 39.5467 -37.755 37.9599 155.662 57.967 92.8213 -22.774 -59.1017 39.2181 -148.851 23.6087 -135.878 28.4983 -6.32256 62.5943 -151.288 81.4454 46.7923 -75.5824 0.819371 4.86597 136.334 -40.8502 36.8467 -168.456 -26.1999 102.068 -1.061 -0.143606 -87.2308 27.137 -0.363926 5.9153 15.4526 -0.103694 5.92554 -6.98534 -2.12219 5.53473 13.0273 -2.1222 5.53472 66.8133 -76.7393 -122.161 152.597 -24.9788 124.697 -35.0522 -1.48795 -0.0171252 3.02387 -0.441146 -27.5339 -76.6456 -34.6751 99.1954 11.0537 -0.771387 42.0703 143.435 -63.9001 -117.757 -28.8944 16.5682 -68.0491 -2.60421 -13.4705 -41.7466 -16.3287 -12.249 30.754 
15.6201 91.0345 -307.817 41.3965 -39.0275 38.989 155.512 52.6545 94.4401 -56.478 -19.346 14.5265 156.566 57.3689 -86.7448 22.7659 -9.2616 44.1592 -175.892 77.6852 69.612 -74.9692 -1.51383 6.78103 143.587 -47.0244 37.6216 -157.687 -40.2855 103.343 -1.10131 0.0708959 -87.3367 26.7147 -0.517112 5.7295 15.0311 -0.264867 5.74662 -7.41467 -2.21277 5.31144 12.598 -2.21275 5.31144 68.2978 -75.8868 -120.829 161.799 -12.2179 129.721 -25.7014 10.736 -0.0137624 4.91735 -0.852136 -27.9171 -76.5052 -34.7588 99.4514 9.21254 -2.45156 42.6938 147.589 -58.5319 -126.265 -28.1666 14.7726 -63.696 -0.862559 -14.1249 -40.4046 -18.1978 -13.0898 31.6599 
15.0117 90.2802 -314.702 43.6486 -40.6884 40.3205 155.641 44.9894 94.2867 -67.8448 10.726 12.0796 100.566 69.9738 -18.2323 17.5649 -12.3367 36.7436 168.947 73.0378 81.5323 -75.3919 -4.45181 9.81472 156.022 -57.1455 40.1157 -135.831 -64.53 114.797 -1.14825 0.339516 -87.486 26.1857 -0.711339 5.46095 14.5034 -0.470675 5.48687 -7.95322 -2.31771 4.99684 12.0594 -2.31772 4.99683 69.9775 -74.7498 -119.356 172.026 6.36523 133.115 -11.6641 24.4583 -0.0069103 7.64097 -1.4044 -27.7338 -76.3344 -34.8528 99.7625 6.84178 -4.64222 43.4585 151.007 -50.7787 -135.994 -27.2319 13.3923 -60.8014 1.21911 -14.9208 -38.9836 -20.2028 -14.242 33.492 
14.2121 88.8351 -323.904 44.2052 -40.2642 39.3355 155.344 36.8925 94.5376 -70.0198 17.3857 12.4864 69.8592 73.1171 17.954 15.2259 -13.1336 32.4735 160.33 70.5099 83.3206 -71.9429 -9.11704 19.8256 -175.91 -75.3245 54.5818 5.8416 -71.6587 -107.621 -1.17201 0.422829 -87.8384 26.2015 -0.823181 5.33223 14.5194 -0.58809 5.36317 -7.93956 -2.38547 4.84046 12.0731 -2.38546 4.84046 71.6679 -73.3678 -117.923 -176.132 29.8439 132.694 6.47448 39.1535 0.00455736 10.6657 -1.8988 -26.633 -76.1509 -34.9392 100.096 4.04442 -7.23791 44.297 153.314 -40.0333 -144.862 -26.8395 13.0489 -60.3123 3.46198 -15.7343 -37.5376 -22.058 -15.5999 36.1526 
13.0628 87.9442 -334.627 95.1779 -55.6113 96.9696 163.55 -14.5269 94.4988 -72.8921 18.3569 22.1414 55.0621 77.6495 38.6498 13.8797 -13.1529 28.7907 157.969 27.9559 78.6237 -68.9327 -7.30462 29.7343 37.5437 -72.8166 -114.561 47.5287 -65.078 -47.2748 -1.49598 4.69701 -88.4946 17.7168 -2.43182 1.99219 6.04708 -2.3417 2.09726 -16.5078 -2.9187 1.16886 3.50484 -2.9187 1.16886 73.2518 -71.7881 -116.641 -157.285 54.9885 122.862 26.8266 56.123 0.0251931 12.8259 -2.07395 -24.9527 -75.9744 -35.0031 100.417 0.907667 -10.1265 45.1342 153.553 -23.5985 -152.018 -28.4858 13.6318 -59.2807 5.67048 -16.4676 -36.1108 -23.4861 -17.0406 39.5153 
12.0237 84.4818 -347.978 104.651 -51.4821 106.27 166.895 -31.8014 102.669 -68.7703 15.6956 23.99 42.9316 82.4997 52.7382 12.2739 -13.5771 26.1434 153.713 32.2459 77.1132 -83.3635 -17.4944 25.9417 66.323 -24.9637 -112.857 125.707 -61.8458 49.9017 -1.79933 5.38246 -89.5763 16.137 -3.33649 1.40187 4.46943 -3.27158 1.54746 -18.0994 -3.60338 0.333133 1.91321 -3.60339 0.333132 74.6771 -70.0632 -115.552 -103.347 72.2546 75.8601 45.711 80.3992 0.134056 12.9444 -1.89381 -23.8526 -75.824 -35.0357 100.691 -2.49825 -13.2 45.8903 150.801 2.97653 -155.876 -32.0827 13.0468 -51.2967 7.64999 -17.071 -34.7641 -24.2326 -18.4302 43.4886 
10.8482 79.2119 -363.923 103.233 -50.5854 103.512 168.544 -41.9329 106.958 -62.5586 10.4034 23.7482 153.965 87.4198 -57.2865 9.16084 -15.5116 25.1565 152.614 42.968 73.2561 -102.309 -26.7921 19.3102 89.3867 1.66863 -111.124 154.204 -56.614 74.8483 -2.13358 5.33359 -89.5962 16.2441 -4.00481 1.477 4.57828 -3.93591 1.65204 -18.0061 -4.26324 0.203061 2.00657 -4.26326 0.203053 75.9346 -68.2462 -114.655 -38.2984 62.7917 16.1116 -122.937 58.5675 179.309 10.7162 -1.70264 -24.4624 -75.715 -35.0356 100.891 -6.12138 -16.3643 46.4834 143.695 35.9494 -152.969 -30.3444 8.05169 -36.1258 9.24147 -17.5376 -33.5489 -24.1127 -19.6233 47.9788 
9.45357 73.8885 -380.191 103.843 -49.5083 102.779 174.296 -54.5807 116.763 -50.8443 5.9328 22.2337 -177.304 72.0327 -89.3113 4.29602 -19.7389 26.9613 153.508 46.3684 70.6948 -119.461 -30.1705 13.3973 109.108 11.3359 -109.38 164.696 -49.8414 84.7211 -2.45581 5.43181 -89.6435 16.0562 -4.66749 1.47885 4.39253 -4.59787 1.6832 -18.21 -4.89567 0.00443974 1.80263 -4.89567 0.00443662 77.0407 -66.3905 -113.919 -18.1791 45.0407 0.0222927 -130.003 23.3205 -173.135 6.80171 -1.49166 -27.2218 -75.6587 -35.0076 100.995 -9.92529 -19.5344 46.8271 129.388 59.2848 -139.643 -22.3033 3.36199 -23.9946 10.3367 -17.8921 -32.4966 -23.0376 -20.471 52.8547 
7.99572 69.3862 -395.505 105.453 -48.5997 102.961 -164.675 -68.4611 144.103 -28.4318 3.14667 14.8887 172.733 48.0689 -94.8649 0.995936 -25.6998 34.3842 154.503 41.2184 70.3921 -132.53 -30.0804 9.45584 128.801 13.8476 -105.425 166.416 -43.1239 88.7738 -2.74704 5.60191 -89.6892 15.7233 -5.27034 1.46066 4.06194 -5.20095 1.69176 -18.5594 -5.46498 -0.195517 1.45328 -5.46497 -0.195518 78.0204 -64.5487 -113.305 -9.55476 29.1276 -5.61225 -142.748 12.578 -155.181 2.35878 -0.731841 -31.7113 -75.661 -34.9608 100.993 -13.886 -22.6291 46.8237 106.971 69.3278 -116.193 -16.4555 1.4847 -17.0872 10.8809 -18.1758 -31.6183 -21.029 -20.8384 57.9278 
